<svg width="4068" height="3956" viewBox="0 0 4068 3956" fill="none" xmlns="http://www.w3.org/2000/svg">
<path d="M2463.3 930.053C2463.3 938.61 2472.93 946.097 2484.69 946.097C2496.46 946.097 2506.08 938.61 2506.08 930.053C2506.08 921.496 2496.46 914.009 2484.69 914.009C2472.93 914.009 2463.3 921.496 2463.3 930.053Z" fill="white"/>
<path d="M916.663 1332.22C908.106 1347.2 928.428 1367.52 943.402 1358.96C949.82 1354.69 955.168 1343.99 955.168 1335.43C955.168 1318.32 927.359 1315.11 916.663 1332.22Z" fill="white"/>
<path d="M1957.38 1295.86C1943.48 1308.69 1949.89 1320.46 1971.28 1320.46C1983.05 1320.46 1992.68 1312.97 1992.68 1304.41C1992.68 1288.37 1970.22 1281.95 1957.38 1295.86Z" fill="white"/>
<path d="M2859.05 1164.3C2859.05 1188.9 2890.07 1193.18 2901.84 1170.71C2911.46 1152.53 2909.32 1149.32 2885.79 1149.32C2869.75 1149.32 2859.05 1155.74 2859.05 1164.3Z" fill="white"/>
<path d="M3000.24 1632.78C3002.38 1645.62 3010.93 1657.38 3019.49 1657.38C3043.02 1657.38 3039.81 1615.67 3016.28 1611.39C3000.24 1608.18 2997.03 1612.46 3000.24 1632.78Z" fill="white"/>
<path d="M2570.26 1368.59C2553.15 1389.98 2564.91 1416.72 2591.65 1416.72C2606.63 1416.72 2613.04 1409.23 2613.04 1391.05C2613.04 1361.1 2587.37 1347.2 2570.26 1368.59Z" fill="white"/>
<path d="M1867.53 1401.75C1857.91 1426.35 1881.44 1444.53 1901.76 1427.42C1914.6 1416.72 1915.66 1410.3 1906.04 1399.61C1889.99 1380.35 1876.09 1380.35 1867.53 1401.75Z" fill="white"/>
<path d="M1288.88 1456.3C1291.02 1466.99 1299.58 1475.55 1308.13 1475.55C1316.69 1475.55 1325.25 1466.99 1327.39 1456.3C1329.53 1443.46 1324.18 1438.11 1308.13 1438.11C1292.09 1438.11 1286.74 1443.46 1288.88 1456.3Z" fill="white"/>
<path d="M677.07 1506.57C677.07 1515.13 681.349 1524.75 686.697 1527.96C698.462 1535.45 721.993 1508.71 712.367 1499.08C699.532 1486.25 677.07 1491.59 677.07 1506.57Z" fill="white"/>
<path d="M1454.67 1530.1C1439.69 1546.14 1448.25 1566.47 1469.64 1566.47C1484.62 1566.47 1489.96 1561.12 1487.82 1548.28C1484.62 1529.03 1466.43 1519.4 1454.67 1530.1Z" fill="white"/>
<path d="M647.122 1964.35C649.261 1978.26 657.818 1988.95 666.374 1988.95C674.931 1988.95 683.488 1978.26 685.627 1964.35C688.836 1946.17 683.488 1940.82 666.374 1940.82C649.261 1940.82 643.913 1946.17 647.122 1964.35Z" fill="white"/>
<path d="M1600.13 2375.08C1591.58 2397.54 1614.04 2420 1630.08 2403.96C1643.99 2390.06 1635.43 2357.97 1618.32 2357.97C1611.9 2357.97 1604.41 2365.45 1600.13 2375.08Z" fill="white"/>
<path d="M3358.55 1808.19C3341.44 1825.31 3351.07 1855.26 3373.53 1855.26C3389.57 1855.26 3394.92 1849.91 3391.71 1831.73C3388.5 1808.19 3371.39 1796.43 3358.55 1808.19Z" fill="white"/>
<path d="M3083.67 2395.4C3083.67 2418.93 3087.95 2422.14 3112.55 2418.93C3128.59 2416.79 3143.56 2408.24 3145.7 2399.68C3148.91 2387.92 3147.84 2387.92 3139.29 2398.61C3131.8 2410.38 3128.59 2408.24 3123.24 2391.12C3114.69 2357.97 3083.67 2362.24 3083.67 2395.4Z" fill="white"/>
<path d="M2287.89 2292.72C2279.33 2305.56 2310.35 2329.09 2324.25 2320.53C2342.44 2308.77 2336.02 2283.09 2314.63 2283.09C2302.86 2283.09 2291.09 2287.37 2287.89 2292.72Z" fill="white"/>
<path d="M2923.23 2403.96C2923.23 2421.07 2944.62 2443.53 2960.66 2443.53C2966.01 2443.53 2963.87 2438.19 2955.32 2432.84C2941.41 2424.28 2942.48 2422.14 2958.52 2422.14C2968.15 2422.14 2976.71 2414.65 2976.71 2406.1C2976.71 2396.47 2967.08 2390.05 2949.97 2390.05C2934.99 2390.05 2923.23 2396.47 2923.23 2403.96Z" fill="white"/>
<path d="M3412.03 2503.43C3397.06 2519.48 3405.61 2539.8 3427 2539.8C3441.98 2539.8 3447.33 2534.45 3445.19 2521.61C3441.98 2502.36 3423.8 2492.74 3412.03 2503.43Z" fill="white"/>
<path d="M2082.52 2940.89C2078.24 2950.52 2080.38 2963.36 2086.8 2969.77C2102.85 2985.82 2133.86 2970.84 2129.59 2949.45C2125.31 2924.85 2091.08 2918.43 2082.52 2940.89Z" fill="white"/>
<path fill-rule="evenodd" clip-rule="evenodd" d="M1664.31 778.172C1670.73 780.312 1691.05 772.824 1709.23 762.128C1731.69 748.224 1753.09 743.945 1778.76 748.224C1797.71 750.932 1808.67 752.497 1819.67 752.839C1834.73 753.308 1849.86 751.482 1885.72 747.154C1924.22 742.875 1940.27 745.015 1959.52 761.059C1984.12 781.381 1986.26 781.381 2023.69 762.128C2072.9 737.528 2096.43 737.528 2142.42 766.407C2194.83 799.564 2216.22 801.703 2318.9 789.938C2363.83 784.59 2375.59 787.799 2391.64 804.912C2408.75 823.095 2420.52 825.235 2474 820.956C2533.89 815.608 2539.24 816.678 2569.19 847.696C2587.37 865.879 2602.35 886.202 2602.35 894.758C2602.35 904.385 2617.32 908.663 2648.34 908.663C2702.89 908.663 2749.95 936.473 2766 978.187C2775.62 1004.93 2780.97 1007.07 2816.27 1002.79C2886.86 993.161 3008.79 1073.38 3008.79 1129C3008.79 1142.9 3016.28 1149.32 3031.26 1149.32C3100.78 1149.32 3169.23 1218.85 3169.23 1288.37C3169.23 1323.67 3172.44 1326.88 3224.85 1347.2C3282.61 1369.66 3329.67 1421 3329.67 1460.57C3329.67 1471.27 3342.51 1498.01 3357.48 1520.47C3375.67 1547.21 3383.15 1571.81 3381.01 1595.34C3378.87 1618.88 3385.29 1637.06 3401.34 1654.17C3414.17 1668.08 3428.08 1691.61 3431.28 1707.65C3435.56 1724.77 3443.05 1737.6 3448.4 1737.6C3453.75 1737.6 3467.65 1753.64 3480.49 1771.83C3497.6 1800.71 3500.81 1817.82 3494.39 1868.09C3490.11 1909.81 3492.25 1930.13 3499.74 1930.13C3515.78 1930.13 3543.59 1987.89 3543.59 2022.11C3543.59 2038.16 3554.29 2062.76 3567.12 2076.66C3588.52 2099.12 3591.72 2115.17 3592.79 2206.08C3594.93 2316.25 3588.52 2345.13 3556.43 2377.22C3528.62 2405.03 3522.2 2436.05 3539.31 2459.58C3547.87 2470.27 3554.29 2503.43 3554.29 2532.31C3554.29 2576.16 3548.94 2589 3520.06 2617.88C3500.81 2637.13 3476.21 2671.36 3463.37 2694.89C3432.35 2756.93 3388.5 2775.11 3268.71 2775.11C3157.47 2775.11 3143.56 2786.88 3197.04 2832.87C3222.71 2854.26 3225.92 2866.03 3230.2 2943.04C3233.41 3023.26 3231.27 3031.81 3206.67 3062.83C3191.69 3079.94 3169.23 3098.13 3157.47 3101.34C3145.7 3105.62 3117.89 3128.08 3096.5 3151.61C3075.11 3175.14 3043.02 3202.95 3026.98 3213.64C3009.86 3224.34 2988.47 3248.94 2978.84 3268.19C2969.22 3288.52 2946.76 3310.98 2928.57 3319.53C2924.33 3321.66 2919.75 3323.91 2915.15 3326.18L2915.14 3326.18C2901.17 3333.07 2886.88 3340.11 2880.44 3344.14C2817.34 3379.43 2790.6 3384.78 2659.04 3384.78C2497.53 3384.78 2461.16 3371.94 2391.64 3296C2367.04 3269.26 2343.5 3251.08 2340.3 3256.43C2337.09 3261.78 2348.85 3317.4 2367.04 3381.57C2404.47 3517.41 2406.61 3548.43 2377.73 3577.31C2347.78 3607.26 2239.75 3608.33 2213.01 3578.38C2202.32 3567.68 2164.88 3450.03 2128.52 3319.53C2093.22 3187.97 2057.92 3077.81 2051.5 3075.67C2027.97 3066.04 1971.28 3000.79 1971.28 2981.54C1971.28 2968.71 1959.52 2956.94 1938.13 2949.45C1917.8 2940.9 1901.76 2924.85 1893.2 2903.46C1881.44 2871.37 1878.23 2870.3 1842.93 2876.72C1806.57 2884.21 1773.41 2886.35 1730.63 2883.14C1718.86 2882.07 1686.77 2884.21 1660.03 2888.49C1604.41 2895.97 1546.65 2872.44 1501.73 2824.31C1486.76 2809.34 1468.57 2796.5 1461.09 2796.5C1430.07 2796.5 1385.15 2764.41 1372.31 2732.33C1364.82 2714.14 1345.57 2692.75 1329.53 2684.19C1313.48 2675.64 1285.67 2652.11 1267.49 2631.78C1228.98 2586.86 1217.22 2531.24 1224.71 2415.73C1227.91 2371.87 1227.91 2336.57 1225.78 2336.57C1223.64 2336.57 1209.73 2344.06 1195.83 2353.69C1161.6 2376.15 1105.98 2366.52 1063.2 2330.16C1037.53 2308.77 1026.83 2305.56 1009.72 2314.11C976.559 2332.3 931.636 2328.02 890.991 2303.42C870.669 2290.58 836.442 2278.82 815.05 2277.75C763.709 2273.47 725.204 2247.8 708.09 2205.01C700.603 2185.76 661.028 2139.77 622.522 2101.26C548.72 2029.6 530.537 1995.37 541.233 1941.89C546.581 1917.29 542.303 1907.67 521.98 1893.76C508.076 1884.14 489.892 1857.4 483.475 1832.79C471.709 1794.29 472.779 1784.66 490.962 1750.44C504.867 1723.7 510.215 1695.89 509.145 1655.24C505.936 1592.14 525.189 1541.86 558.347 1524.75C569.043 1518.33 580.808 1499.08 585.087 1479.83C588.295 1461.64 607.548 1431.7 628.94 1412.44C649.262 1393.19 666.376 1371.8 666.376 1365.38C666.376 1357.89 676.002 1347.2 687.768 1339.71C700.603 1331.15 709.16 1314.04 709.16 1298C709.16 1256.28 753.013 1199.59 793.658 1185.69C813.98 1179.27 835.372 1167.51 841.79 1158.95C848.207 1150.39 868.53 1133.28 885.643 1120.44C903.826 1107.61 925.218 1085.15 932.706 1070.17C949.819 1039.15 1012.93 1006 1037.53 1014.55C1046.08 1017.76 1065.34 1011.34 1080.31 999.579C1095.28 987.813 1112.4 978.187 1118.82 978.187C1124.16 978.187 1147.69 961.073 1171.23 939.681C1206.52 908.663 1220.43 902.246 1254.65 904.385C1286.74 907.594 1302.79 901.176 1332.73 875.506C1371.24 841.279 1432.21 826.304 1511.36 832.722C1538.1 834.861 1553.07 830.583 1562.7 816.678C1576.6 796.355 1642.92 770.685 1664.31 778.172ZM1857.91 912.941C1842.93 897.967 1822.61 868.019 1812.98 848.766C1803.36 828.443 1787.31 811.33 1778.76 810.26C1752.02 805.982 1725.28 827.374 1725.28 853.044C1725.28 885.132 1744.53 903.315 1778.76 903.315C1794.8 903.315 1817.26 914.011 1830.1 927.916C1852.56 951.447 1853.63 963.213 1853.63 1126.86C1853.63 1226.33 1849.35 1309.76 1842.93 1321.53C1834.38 1336.5 1835.45 1341.85 1846.14 1341.85C1881.44 1341.85 1885.72 1317.25 1885.72 1129C1885.72 942.89 1885.72 941.821 1857.91 912.941ZM1931.71 884.063C1954.17 859.462 1954.17 845.557 1932.78 824.165C1900.69 792.077 1853.63 810.26 1853.63 855.183C1853.63 901.176 1900.69 918.29 1931.71 884.063ZM2123.17 876.575C2132.79 854.114 2131.72 846.626 2115.68 828.443C2082.52 792.077 2035.46 807.052 2035.46 855.183C2035.46 906.524 2101.78 922.568 2123.17 876.575ZM1810.84 997.44L1744.53 925.777C1709.23 887.271 1673.94 851.974 1667.52 848.766C1649.34 838.07 1609.76 857.323 1602.27 880.854C1595.86 901.176 1587.3 903.315 1491.04 903.315C1409.75 903.315 1383.01 906.524 1372.31 919.359C1364.82 928.985 1360.54 937.542 1362.68 938.612C1364.82 940.751 1431.14 939.681 1509.22 937.542C1632.22 934.333 1649.34 931.125 1638.64 917.22C1627.94 905.454 1629.01 899.037 1642.92 885.132C1658.96 869.088 1661.1 869.088 1669.66 893.689C1676.08 907.594 1702.82 940.751 1729.56 965.352L1778.76 1010.27V1243.45V1476.62L1722.22 1532.4C1686.37 1447.47 1655.88 1387 1648.75 1387C1641.64 1387 1631.79 1400.66 1623.42 1419.58C1600.6 1403.39 1588.97 1403.48 1580.88 1416.72C1577.92 1421.38 1591.19 1438.91 1609.57 1458.48C1605.87 1468.46 1600.83 1481.25 1594.63 1496.43C1588.75 1488.9 1581.72 1480.94 1573.39 1472.34L1528.47 1427.42H1435.42C1383.01 1427.42 1338.08 1422.07 1334.87 1416.72C1310.27 1377.15 1242.89 1439.18 1265.35 1479.83C1279.26 1506.57 1337.01 1510.85 1346.64 1486.25C1351.99 1473.41 1372.31 1470.2 1435.42 1470.2C1511.36 1470.2 1519.91 1472.34 1545.58 1499.08C1557.57 1511.87 1568.36 1530.02 1573.95 1545.97C1561.77 1574.63 1547.44 1607.66 1531.53 1643.75C1521.27 1654.93 1511.36 1670.47 1511.36 1678.77C1511.36 1681.1 1511.83 1683.63 1512.7 1686.25C1508.39 1695.93 1504 1705.76 1499.53 1715.73C1491.46 1701.18 1489.97 1685.15 1489.97 1654.17C1489.97 1617.81 1495.31 1591.07 1506.01 1581.44C1529.54 1557.91 1525.26 1527.96 1498.52 1508.71C1466.43 1486.25 1454.67 1487.31 1430.07 1514.05C1410.82 1535.45 1403.33 1536.52 1268.56 1529.03L1127.37 1521.54L1091.01 1557.91C1051.43 1595.34 1035.39 1637.06 1050.36 1661.66C1066.41 1686.26 1097.42 1667.01 1089.94 1637.06C1085.66 1619.94 1091.01 1606.04 1108.12 1590C1130.58 1568.6 1141.28 1567.53 1273.91 1570.74C1365.89 1572.88 1420.44 1579.3 1431.14 1587.86C1441.83 1596.41 1447.18 1621.01 1447.18 1662.73C1447.18 1717.2 1449.02 1725.82 1481.56 1755.67C1473.76 1772.94 1465.78 1790.53 1457.66 1808.33L1416.16 1767.55C1380.87 1733.32 1350.92 1698.03 1346.64 1689.47C1339.15 1668.08 1319.9 1669.15 1311.34 1691.61C1305.99 1704.44 1323.11 1726.9 1375.52 1775.04L1444.3 1837.56C1440.01 1846.92 1435.69 1856.31 1431.35 1865.74L1404.4 1925.91V1858.47L1327.39 1790.01C1284.6 1752.58 1245.03 1716.21 1240.75 1708.72C1232.19 1693.75 1177.64 1689.47 1165.88 1702.3C1161.6 1705.51 1158.39 1722.63 1158.39 1738.67C1158.39 1762.2 1164.81 1770.76 1185.13 1776.11C1200.1 1779.31 1219.36 1777.18 1227.91 1769.69C1240.75 1758.99 1253.58 1767.55 1301.72 1812.47L1360.54 1868.09L1363.75 1965.42C1364.47 1983.99 1365.18 1999.16 1366.04 2011.57L1316.61 2121.94C1316.37 2120.69 1316.04 2119.5 1315.62 2118.38C1308.13 2099.12 1280.32 2095.92 1269.63 2113.03C1260.07 2129.27 1287.22 2155.75 1303.79 2150.55L1262.51 2242.72H1341C1339.07 2244.37 1337.03 2246.06 1334.87 2247.8L1297.44 2277.75V2417.86V2556.91L1332.73 2591.14C1384.08 2641.41 1436.49 2632.85 1436.49 2575.1C1436.49 2543.01 1391.56 2519.48 1368.03 2538.73C1337.01 2564.4 1329.53 2539.8 1329.53 2417.86V2298.07L1364.82 2263.84C1373.5 2255.17 1383.04 2247.36 1391.89 2241.4C1438.88 2237.29 1455.62 2221.92 1479.91 2173.34C1482.8 2167.56 1485.55 2162.26 1488.23 2157.4C1500.21 2155.16 1511.36 2143.19 1511.36 2126.93C1511.36 2126.59 1511.34 2126.24 1511.31 2125.91C1519.2 2118.83 1528.32 2114.01 1540.22 2110.74C1537.61 2117.93 1535.77 2126.23 1534.89 2135.49C1532.75 2165.44 1516.71 2186.83 1456.81 2245.66L1383.01 2319.46V2396.47V2473.48L1441.83 2526.96C1483.55 2565.47 1500.66 2589 1500.66 2608.25C1500.66 2627.51 1495.31 2636.06 1481.41 2636.06C1454.67 2636.06 1436.49 2656.38 1436.49 2686.33C1436.49 2709.86 1471.78 2738.74 1488.9 2728.05C1493.17 2724.84 1513.5 2738.74 1532.75 2759.07C1553.07 2779.39 1575.53 2796.5 1584.09 2796.5C1591.58 2796.5 1605.48 2803.99 1614.04 2812.55C1636.5 2833.94 1653.61 2832.87 1677.15 2807.2C1695.33 2787.94 1695.33 2784.74 1678.21 2759.07C1657.89 2728.05 1637.57 2724.84 1612.97 2749.44C1596.93 2765.48 1593.72 2764.41 1563.77 2736.6C1546.65 2720.56 1532.75 2703.45 1532.75 2700.24C1532.75 2695.96 1650.41 2691.68 1794.8 2690.61L2056.85 2688.47V2728.05C2056.85 2761.21 2065.41 2776.18 2109.26 2818.96C2187.34 2898.11 2195.9 2892.77 2195.9 2764.41V2656.38L2356.34 2499.15L2516.78 2341.92V2249.94C2516.78 2247.46 2516.79 2245.02 2516.81 2242.62C2525.69 2242.69 2534.69 2242.72 2543.78 2242.72H2558.55C2558.81 2253.15 2559.15 2264.64 2559.49 2276.3L2559.56 2278.82L2561.7 2344.06L2394.84 2503.43L2227.99 2662.8V2807.2V2952.66L2179.86 2999.73C2153.12 3025.4 2131.72 3053.21 2131.72 3061.76C2131.72 3092.78 2253.66 3518.48 2264.35 3525.97C2280.4 3536.66 2322.11 3536.66 2328.53 3525.97C2331.74 3520.62 2322.11 3476.77 2307.14 3426.49C2292.16 3377.29 2275.05 3313.12 2269.7 3285.31C2260.08 3241.45 2236.54 3211.51 2223.71 3225.41C2221.57 3227.55 2235.47 3287.45 2255.8 3358.04C2275.05 3427.56 2290.02 3487.46 2287.89 3489.6C2281.47 3494.95 2253.66 3402.96 2208.73 3227.55L2165.95 3066.04L2213.01 3020.05L2260.08 2974.05V2823.24V2672.43L2373.45 2571.89C2435.49 2516.27 2496.46 2458.51 2507.15 2444.6L2528.54 2417.86L2626.95 2516.27L2725.35 2614.67H2881.51C3007.72 2614.67 3040.88 2617.88 3051.58 2630.71C3069.76 2652.11 3086.87 2651.04 3111.48 2624.3C3125.38 2608.25 3128.59 2598.63 3120.03 2585.79C3098.64 2551.56 3076.18 2545.15 3053.72 2564.4C3036.6 2579.37 3009.86 2582.58 2884.72 2582.58H2734.98L2646.2 2491.67C2561.7 2406.1 2557.42 2399.68 2574.54 2381.5C2586.3 2367.59 2591.65 2341.92 2591.65 2290.58V2242.72H2767.63C2764.98 2245.2 2762.29 2247.61 2759.58 2249.94C2723.21 2282.03 2715.72 2285.23 2671.87 2278.82C2629.09 2272.4 2623.74 2273.47 2623.74 2291.65C2623.74 2308.77 2633.36 2313.04 2680.43 2318.39C2732.84 2323.74 2738.19 2321.6 2776.69 2285.23C2804.5 2257.42 2824.82 2246.73 2843.01 2248.87C2860.12 2251.01 2872.95 2244.59 2882.58 2230.68C2896.49 2208.22 2955.31 2198.6 2955.31 2218.92C2955.31 2238.17 2997.03 2252.08 3019.49 2240.31C3041.95 2228.55 3049.44 2182.55 3030.19 2170.79C3024.84 2167.58 3019.49 2146.19 3019.49 2124.79C3019.49 2090.57 3029.12 2075.59 3096.5 2008.21C3144.63 1959.01 3183.14 1930.13 3197.04 1930.13C3228.06 1930.13 3246.24 1905.53 3241.97 1869.16C3237.69 1828.52 3189.56 1821.03 3164.95 1857.4C3155.33 1870.23 3147.84 1886.27 3147.84 1892.69C3147.84 1899.11 3111.48 1939.75 3067.62 1983.61C2993.82 2057.41 2987.4 2067.04 2987.4 2107.68C2987.4 2167.58 2971.36 2178.27 2884.72 2174C2829.69 2171.33 2815.91 2172.35 2809.75 2184.39V2154.84V2135.32C2844.01 2103.08 2850.71 2103.24 2872.95 2113.03C2897.56 2123.73 2905.04 2122.66 2923.23 2106.61C2949.97 2083.08 2949.97 2067.04 2925.36 2044.57C2899.69 2021.04 2883.65 2022.11 2867.61 2047.78C2860.12 2059.55 2849.42 2069.18 2845.15 2069.18C2841.87 2069.18 2828.2 2079.18 2809.75 2094.29V2064.64L2770.31 2067.31C2797.41 2041.54 2826.47 2018.08 2837.66 2012.49C2874.02 1994.3 2887.93 1966.49 2874.02 1942.96C2857.98 1917.29 2809.85 1913.01 2797.01 1936.55C2788.46 1951.52 2775.62 1953.66 2722.14 1948.31C2672.94 1944.03 2653.69 1946.17 2644.06 1957.94C2625.88 1980.4 2659.04 2016.77 2679.36 1996.44C2686.84 1988.96 2716.79 1983.61 2745.67 1983.61H2799.15L2741.39 2042.44L2713.19 2071.17L2638.61 2076.21L2467.46 2087.77L2462.92 2054.81C2484.88 2057.48 2517.03 2058.79 2562.77 2059.55C2661.17 2060.62 2693.26 2057.41 2712.52 2044.57C2733.91 2028.53 2727.49 2027.46 2605.56 2027.46C2530.68 2026.39 2472.93 2022.11 2468.65 2015.7C2465.88 2011.08 2461.61 2008.06 2456.75 2006.56L2453.27 1972.91H2511.43C2584.16 1972.91 2586.3 1971.84 2631.23 1927.99L2664.17 1895.81H2742.37C2751.34 1898.95 2761.26 1898.91 2770.38 1895.81H2812.07L2805.13 1810.24L2800.84 1758.82L2864.4 1823.17L2948.9 1908.74L2930.71 1939.75C2899.69 1992.16 2939.27 2041.37 2985.26 2009.28C3013.07 1990.03 3015.21 1960.08 2992.75 1940.82C2984.19 1933.34 2976.71 1917.29 2976.71 1904.46C2976.71 1890.55 2946.76 1852.05 2896.49 1801.78C2817.34 1722.63 2816.27 1721.56 2816.27 1665.94C2816.27 1635.99 2821.61 1607.11 2826.96 1603.9C2833.38 1600.69 2837.66 1585.72 2837.66 1571.81C2837.66 1557.91 2833.38 1542.93 2826.96 1539.73C2811.99 1530.1 2813.06 1424.21 2829.1 1408.17C2838.73 1398.54 2838.73 1388.91 2829.1 1368.59C2814.13 1335.43 2769.2 1332.22 2752.09 1363.24C2748.04 1370.72 2745.9 1378.92 2745.42 1387H2709.96C2709.53 1381.22 2709.31 1375.41 2709.31 1369.66C2709.31 1320.46 2705.03 1309.76 2674.01 1279.81C2644.06 1250.93 2631.23 1245.59 2585.23 1245.59C2536.03 1245.59 2528.54 1249.86 2486.83 1291.58L2441.91 1337.57V1387H2399.12V1324.74L2554.21 1170.71C2639.78 1086.22 2709.31 1014.55 2709.31 1010.27C2709.31 1006 2700.75 995.301 2690.05 985.674C2664.38 963.213 2614.11 962.143 2605.56 984.604C2597 1008.14 2619.46 1029.53 2636.57 1012.41C2653.69 995.301 2666.52 996.37 2666.52 1015.62C2666.52 1024.18 2655.83 1035.95 2642.99 1043.43C2629.09 1049.85 2561.7 1110.82 2493.25 1179.27L2367.04 1304.41V1387H2322.1C2323.52 1355.86 2323.81 1316.93 2323.18 1269.12L2319.97 1105.47L2393.78 1031.67C2441.91 982.465 2470.79 961.073 2475.06 969.63C2481.48 979.257 2490.04 979.257 2510.36 969.63C2540.31 955.725 2547.8 917.22 2525.34 894.758C2517.85 887.271 2499.67 881.923 2484.69 881.923C2453.67 881.923 2431.21 899.037 2431.21 923.637C2431.21 933.264 2398.05 973.908 2357.41 1015.62L2282.54 1090.49L2279.33 1291.58C2277.37 1434.66 2279 1483.46 2287.51 1490.63L2286.52 1546.05C2276.64 1546.85 2266.08 1547.47 2255.13 1547.88C2254.84 1540.36 2254.69 1532.94 2254.69 1525.77C2254.69 1480.49 2250.5 1452.39 2229.29 1433.62C2228.24 1432.16 2227.09 1430.8 2225.85 1429.56C2219.1 1422.81 2212.44 1418.96 2204.53 1418.73C2181.91 1409.25 2149.38 1403.05 2102.75 1397.57L2153.12 1347.2V1206.01C2153.12 1123.65 2157.39 1062.69 2163.81 1058.41C2178.79 1048.78 2177.72 1007.07 2161.67 991.022C2125.31 954.656 2065.41 997.44 2088.94 1042.36C2095.36 1054.13 2104.98 1063.75 2110.33 1063.75C2116.75 1063.75 2121.03 1120.44 2121.03 1199.59L2122.1 1336.5L2060.92 1393.15C2047.77 1391.88 2033.75 1390.61 2018.78 1389.31L2014.07 1388.9V1376.08C2014.07 1351.48 2019.42 1331.15 2024.76 1331.15C2031.18 1331.15 2045.09 1321.53 2056.85 1309.76C2075.04 1291.58 2078.24 1274.47 2078.24 1193.18C2078.24 1140.77 2073.97 1085.15 2067.55 1070.17C2056.85 1041.29 2031.18 1033.81 2019.42 1054.13C2015.14 1059.48 2019.42 1073.38 2029.04 1084.08C2050.43 1107.61 2053.64 1273.4 2033.32 1279.81C2015.14 1286.23 1958.45 1233.82 1964.87 1217.78C1971.28 1200.66 1939.2 1187.83 1925.29 1201.73C1917.8 1209.22 1919.94 1219.92 1933.85 1234.89C1952.03 1255.21 1952.03 1257.35 1933.85 1277.67C1914.6 1299.07 1917.8 1352.55 1939.2 1352.55C1944.46 1352.55 1963.18 1368.08 1980.09 1385.9L1930.85 1381.55C1929.52 1379.58 1928.03 1377.74 1926.36 1376.08C1908.18 1357.89 1868.6 1360.03 1849.35 1380.36C1827.96 1401.75 1827.96 1421 1849.35 1443.46C1854.46 1448.58 1858.52 1455.94 1861.52 1464.61V1549.56C1858.1 1559.27 1853.33 1567.17 1847.21 1571.81C1836.52 1580.37 1817.26 1587.86 1805.5 1587.86C1795.72 1587.86 1776.03 1599.64 1756.33 1616.59L1755.13 1613.65C1749.34 1598.75 1743.54 1584.18 1737.81 1570.07L1810.84 1498.01V1247.73V997.44ZM2443.44 1972.91L2421.21 2027.64C2410.66 2050.05 2394.1 2077.73 2375.81 2102.96C2356.33 2102.07 2334.89 2120.14 2293.23 2166.51L2236.54 2229.62H2121.47C2184.03 2220.51 2216.32 2202.79 2270.88 2159.46C2311.61 2126.49 2360.48 2069.12 2390.19 2020.08L2438.7 1972.91H2443.44ZM2279.57 2226.17C2279.49 2226.25 2279.41 2226.33 2279.33 2226.41L2232.27 2272.4H2098.57H1965.94L1875.02 2363.31C1806.57 2431.77 1777.69 2454.23 1756.3 2454.23C1726.35 2454.23 1687.84 2423.21 1715.65 2421.07C1758.43 2418.93 1777.69 2405.03 1864.32 2321.6L1944.77 2242.08L1890.81 2245.08C1894.28 2247.71 1896.41 2251.26 1896.41 2255.29C1896.41 2271.33 1870.74 2285.23 1860.05 2275.61C1851.09 2265.97 1851.45 2254.11 1858.27 2246.89L1849.96 2247.35L1844.77 2232.9L1832.24 2245.66C1776.62 2302.35 1772.34 2304.49 1717.79 2304.49C1651.47 2304.49 1639.71 2318.39 1672.87 2354.76L1698.54 2381.5L1673.94 2401.82C1641.85 2426.42 1646.13 2460.65 1680.35 2456.37C1728.49 2448.88 1756.3 2508.78 1719.93 2539.8C1697.47 2557.98 1650.41 2544.08 1650.41 2519.48C1650.41 2508.78 1642.92 2493.81 1634.36 2486.32C1625.8 2478.83 1618.32 2467.07 1618.32 2458.51C1618.32 2451.02 1608.69 2441.4 1595.86 2438.19C1572.32 2430.7 1550.93 2387.92 1560.56 2365.45C1562.7 2357.97 1588.37 2332.3 1615.11 2309.84C1657.89 2274.54 1670.73 2269.19 1711.37 2271.33C1754.16 2273.47 1762.71 2269.19 1820.47 2213.57L1833.42 2201.29L1817.58 2157.15C1815.63 2151.68 1813.59 2146.07 1811.48 2140.36C1806.83 2140.97 1802.44 2139.92 1799.08 2136.56C1791.59 2129.07 1789.45 2116.24 1792.66 2107.68C1793.62 2105.21 1794.92 2103 1796.47 2101.07C1780.96 2061.66 1763.08 2019.4 1745.25 1979.46C1736.18 1985.2 1726.03 1991.17 1715.83 1996.76C1717.55 1999.68 1719.28 2002.74 1721.01 2005.93C1721.1 2005.91 1721.2 2005.89 1721.29 2005.87C1721.42 2005.84 1721.54 2005.82 1721.67 2005.8C1725.18 2005.27 1729.02 2006.84 1735.93 2009.66C1737.25 2010.2 1738.69 2010.79 1740.25 2011.42C1765.55 2021.02 1762.39 2039.15 1740.62 2045.51L1769.01 2103.96H1751.99C1752.39 2105.16 1752.76 2106.4 1753.09 2107.68C1761.64 2139.77 1741.32 2165.44 1708.16 2165.44C1676.7 2165.44 1656.54 2131.5 1670.91 2103.96H1641.81C1629.7 2103.96 1618.71 2104.01 1608.69 2104.17C1617.93 2126.9 1611.77 2159.74 1591.58 2171.86C1579.81 2178.27 1534.89 2216.78 1493.17 2257.42L1415.09 2331.23V2390.05C1415.09 2447.81 1417.23 2451.02 1473.92 2507.71C1527.4 2560.12 1532.75 2569.75 1532.75 2611.46V2657.45H1768.06C1991.61 2657.45 2003.37 2656.38 2003.37 2637.13C2003.37 2605.04 2031.18 2587.93 2061.13 2601.84C2083.59 2611.46 2087.87 2623.23 2094.29 2687.4C2100.71 2752.65 2106.05 2766.55 2134.93 2795.43L2169.16 2827.52L2165.95 2734.47L2162.74 2640.34L2317.83 2488.46L2474 2335.51V2243.52C2474 2243.01 2474 2242.51 2474 2242.01C2468.02 2241.88 2462.12 2241.74 2456.32 2241.59C2456.51 2241.87 2456.69 2242.16 2456.88 2242.45C2472.93 2269.19 2453.67 2298.07 2417.31 2302.35C2394.84 2305.56 2387.36 2300.21 2382.01 2278.82C2378.1 2262.85 2380.84 2249.06 2387.36 2238.88C2328.93 2235.75 2288.29 2231.05 2279.57 2226.17ZM1641.47 1942.16C1661.67 1943.07 1678.18 1950.52 1693.37 1966.21C1700.78 1963.7 1707.67 1962.22 1712.44 1962.22C1719.41 1962.22 1727.5 1959.59 1734.5 1955.67C1729.86 1945.5 1725.25 1935.57 1720.72 1925.95C1718.25 1937.31 1714.57 1940.82 1709.23 1940.82C1698.4 1940.82 1694.71 1927.84 1693.61 1870.5C1672.9 1829.97 1656.73 1803.3 1651.06 1803.3C1650.34 1803.3 1649.45 1803.7 1648.41 1804.46L1648.27 1811.4C1647.02 1873.6 1644.51 1917.08 1641.47 1942.16ZM1842.93 1635.99C1823.49 1613.47 1811.88 1615.44 1771.56 1654.07C1777.73 1669.25 1783.7 1683.93 1789.49 1698.13C1791.44 1696.07 1793.57 1693.91 1795.87 1691.61C1825.82 1661.66 1837.58 1656.31 1847.21 1672.36C1850.42 1676.63 1840.79 1692.68 1825.82 1706.58C1814.95 1717 1808.3 1724.16 1804.57 1735.04C1819.96 1772.64 1833.96 1806.48 1846.83 1836.89C1850.01 1834.4 1856.18 1834.38 1866.46 1836C1879.3 1838.14 1891.06 1846.7 1891.06 1855.26C1891.06 1870.26 1874.1 1874.39 1860.7 1869.31C1866.23 1882.11 1871.56 1894.22 1876.69 1905.65C1888.09 1901.54 1899.26 1893.51 1907.86 1882.72C1896.44 1853.5 1887.65 1827.4 1880.96 1800.89C1873.3 1802.21 1864.97 1800.56 1856.84 1795.36C1819.63 1772.1 1830.96 1727.01 1866.91 1719.17C1864.78 1698.32 1863.39 1675.7 1862.55 1650.19C1855.76 1648.15 1849.2 1643.43 1842.93 1635.99ZM1916.56 1904.39C1905.78 1911.27 1894.44 1916.94 1883.71 1921.13C1932.56 2027.65 1964.2 2070.8 2003.51 2079.56C2003.87 2079.64 2004.23 2079.71 2004.59 2079.79C2068.33 2078.3 2078.24 2056.2 2078.24 1941.89V1838.14L2177.72 1739.74C2206.36 1711.65 2233.58 1686.4 2254.27 1668.51C2245.5 1661.72 2233.49 1651.15 2217.68 1636.78C2201.25 1621.38 2180.73 1605.98 2159.94 1593.01C2149.64 1596.78 2146.65 1603.31 2142.42 1614.6C2129.58 1648.82 2099.64 1649.89 2099.64 1616.74C2099.64 1596.61 2105.54 1581.85 2119.77 1571.29C2108.54 1566.25 2098.07 1562.55 2089.08 1560.65L2055.78 1593.21L2057.92 1694.82C2061.13 1783.59 2058.99 1796.43 2042.95 1799.64C2026.9 1802.85 2024.76 1791.08 2024.76 1687.33V1571.81L2046.53 1550.05L2023.41 1544.27V1800.99C2023.41 1812.69 2023.35 1824.23 2023.22 1835.53C2024.76 1835.28 2026.34 1835.08 2027.97 1834.93C2032.25 1833.86 2035.46 1845.63 2035.46 1860.6C2035.46 1883.49 2034.79 1888.91 2022.26 1885.38C2021.68 1905.82 2020.9 1925.09 2019.95 1942.83C2026.56 1957.25 2025.77 1973.34 2017.03 1986.05C2013.29 2030.36 2008.22 2057.7 2002.6 2057.7C1997.04 2057.7 1981.45 2035.15 1962.37 2000.08C1956.37 1997.29 1950.66 1993.21 1945.61 1987.89C1928.68 1971.76 1925.12 1961.71 1935.4 1946.73C1930.82 1937.05 1926.22 1926.98 1921.65 1916.62C1919.9 1912.47 1918.21 1908.4 1916.56 1904.39ZM2110.33 1959.01V2055.49C2115.85 2053.24 2121.56 2050.89 2127.49 2048.45C2136.06 2044.78 2144.16 2041.09 2151.82 2037.31C2153.12 2024.16 2153.12 2007.11 2153.12 1982.54V1902.32L2221.57 1834.93C2247.48 1809.02 2264.99 1792.72 2279.72 1782.3C2280.8 1766.44 2281.69 1749.54 2282.42 1731.5C2279.21 1730.71 2276.03 1729.53 2272.91 1727.97C2255.8 1719.42 2240.82 1730.11 2182 1788.94L2110.33 1861.67V1959.01ZM2185.2 2003.93V2018.34C2202.59 2006.75 2216.95 1993.74 2228.83 1977.95C2224.68 1975.31 2220.83 1971.84 2217.29 1967.56C2201.25 1948.31 2210.87 1919.43 2234.41 1919.43C2245.1 1919.43 2249.38 1925.85 2246.17 1934.41C2242.94 1942.62 2243.34 1947.05 2246.8 1948.01C2260.22 1919.75 2268.98 1883.95 2274.73 1836.44C2266.87 1843.64 2257.88 1852.31 2247.24 1862.74L2185.2 1923.71V2003.93ZM2513.49 1734.84L2580.12 1733.01C2580.97 1706.76 2580.96 1673.92 2580.96 1632.87C2580.96 1628.99 2580.95 1625.04 2580.95 1621.01C2580.95 1593.02 2580.89 1569.18 2580.69 1548.89H2548.86C2548.77 1641.7 2546.24 1650.38 2523.2 1673.42C2506.08 1688.4 2490.04 1694.82 2478.27 1690.54C2462.23 1684.12 2463.3 1679.84 2487.9 1654.17C2511.12 1630.06 2515.7 1622.35 2516.58 1548.89H2474V1613.53L2462.84 1624.92V1643.72V1702.73C2481.88 1701.81 2499.22 1711.95 2512.5 1733.32C2512.84 1733.83 2513.17 1734.34 2513.49 1734.84ZM2613.04 1629.57C2613.04 1598.19 2613.19 1571.52 2613.52 1548.89H2636.3H2757.03C2748.27 1565.54 2752.66 1596.25 2769.2 1610.32C2780.97 1619.94 2785.25 1639.2 2782.04 1680.91L2779.35 1727.5L2734.48 1728.75C2731.74 1716.61 2730.7 1699.89 2730.7 1676.63C2730.7 1642.41 2725.35 1608.18 2717.86 1600.69C2703.96 1586.79 2664.38 1583.58 2652.62 1595.34C2648.36 1598.54 2645.16 1660 2645.13 1731.23L2631.67 1731.6L2613.04 1732.11V1629.57ZM2540.31 1345.06C2529.46 1356.45 2523.56 1365.64 2520.39 1387H2474V1356.82L2509.29 1322.6C2554.21 1278.74 2618.39 1274.47 2653.69 1312.97C2669.32 1329.18 2677.43 1357.93 2677.51 1387H2647.88C2647.69 1374.03 2642.56 1360.39 2632.3 1347.2C2606.63 1314.04 2570.26 1312.97 2540.31 1345.06ZM2677.26 1730.34L2700.94 1729.68C2699.4 1717.85 2698.61 1704.42 2698.61 1689.47C2698.61 1652.03 2694.33 1617.81 2687.91 1614.6C2681.86 1610.56 2677.71 1651.23 2677.26 1730.34ZM2501.8 1930.13C2569.06 1930.13 2577.71 1928 2609.64 1896.09L2451.28 1898.12L2435.66 1930.13H2501.8ZM2270.01 1655.31C2276.06 1650.43 2281.05 1646.7 2284.75 1644.32L2284.76 1643.72L2285.76 1587.79C2277.48 1587.85 2268.23 1587.86 2257.85 1587.86C2260.6 1615.77 2264.92 1641.09 2270.01 1655.31ZM1653.37 1733.91C1670.26 1733.91 1685.11 1729.84 1693.19 1723.71V1695.2C1687.39 1685.54 1678.12 1675 1667.25 1666.84C1661.26 1661.95 1656.17 1658.33 1651.73 1656.05L1651.47 1656.31L1649.87 1733.91C1650.72 1733.91 1651.59 1733.91 1652.47 1733.91L1653.37 1733.91ZM1618.93 1683.7L1619.55 1731.87C1604.05 1727.93 1606.27 1716.52 1618.93 1683.7ZM1627.82 1941.91C1625.26 1921.21 1623.02 1888.19 1621.53 1843.03C1603.31 1875.03 1583.99 1916.85 1583.99 1930.5C1583.99 1936.7 1602.45 1941.05 1627.82 1941.91ZM1979.84 884.063C1995.89 900.106 2025.83 875.506 2017.28 854.114C2014.07 845.557 2004.44 839.139 1996.95 839.139C1976.63 839.139 1964.87 869.088 1979.84 884.063ZM2334.95 940.751C2361.69 932.194 2374.52 887.271 2356.34 865.879C2339.23 845.557 2298.58 845.557 2282.54 864.81C2273.98 874.436 2271.84 899.037 2276.12 932.194C2282.54 981.396 2281.47 984.604 2239.75 1026.32L2195.9 1068.03V1224.19C2195.9 1310.83 2199.11 1383.56 2202.32 1387.84C2205.53 1391.05 2216.22 1391.05 2224.78 1387.84C2238.68 1382.49 2239.75 1360.03 2233.34 1235.96L2225.85 1090.49L2269.7 1047.71C2299.65 1018.83 2313.56 996.37 2313.56 977.117C2313.56 956.795 2319.97 945.029 2334.95 940.751ZM2170.23 950.377C2208.73 965.352 2253.66 907.594 2227.99 876.575C2210.87 856.253 2170.23 856.253 2153.12 876.575C2137.07 895.828 2146.7 941.821 2170.23 950.377ZM1998.02 995.301C2017.28 987.813 2019.42 945.029 2001.23 926.846C1962.73 888.341 1901.76 941.821 1933.85 985.674C1955.24 1013.48 1954.17 1091.56 1932.78 1100.12C1911.39 1108.68 1916.73 1158.95 1942.41 1174.99C1978.77 1198.52 2024.76 1134.35 1993.75 1103.33C1975.56 1085.15 1978.77 1002.79 1998.02 995.301ZM2101.78 958.934C2107.12 953.586 2109.26 942.89 2106.05 936.473C2096.43 922.568 2070.76 921.498 2063.27 934.333C2053.64 950.377 2087.87 972.839 2101.78 958.934ZM1741.32 1133.28C1734.9 1043.43 1731.69 1034.88 1700.68 1003.86C1671.8 974.978 1656.82 968.561 1600.13 964.282C1562.7 961.073 1529.54 963.213 1526.33 968.561C1514.57 988.883 1535.96 999.579 1590.51 999.579C1637.57 999.579 1650.41 1003.86 1675.01 1029.53C1701.75 1057.34 1703.89 1066.96 1703.89 1142.9C1703.89 1262.7 1698.54 1265.91 1511.36 1266.98C1376.59 1266.98 1365.89 1265.91 1353.06 1244.52C1343.43 1229.54 1330.6 1224.19 1310.27 1226.33C1284.6 1229.54 1281.39 1233.82 1281.39 1266.98V1304.41L1479.27 1301.21L1677.15 1296.93L1712.44 1263.77L1747.74 1229.54L1741.32 1133.28ZM1293.16 1037.01C1305.99 1017.76 1304.93 1011.34 1291.02 991.022C1263.21 950.377 1211.87 967.491 1211.87 1016.69C1211.87 1064.82 1265.35 1078.73 1293.16 1037.01ZM1343.43 1009.21C1361.61 1024.18 1387.28 1006 1379.8 984.604C1375.52 974.978 1365.89 967.491 1357.34 967.491C1337.01 967.491 1327.39 995.301 1343.43 1009.21ZM1462.16 1057.34C1485.69 1048.78 1495.31 1002.79 1479.27 983.535C1451.46 950.377 1404.4 971.769 1404.4 1017.76C1404.4 1044.5 1436.49 1066.96 1462.16 1057.34ZM2223.71 1010.27C2232.27 1010.27 2238.68 1000.65 2238.68 988.883C2238.68 966.421 2213.01 958.934 2201.25 978.187C2192.69 993.161 2204.46 1010.27 2223.71 1010.27ZM2539.24 1031.67C2557.42 1043.43 2582.02 1024.18 2573.47 1003.86C2570.26 995.301 2560.63 988.883 2553.15 988.883C2531.75 988.883 2521.06 1020.97 2539.24 1031.67ZM1150.9 1057.34C1158.39 1076.59 1186.2 1079.8 1196.9 1062.69C1200.1 1056.27 1196.9 1044.5 1189.41 1035.95C1170.16 1017.76 1142.35 1033.81 1150.9 1057.34ZM1530.61 1072.31C1540.24 1070.17 1548.79 1061.62 1548.79 1053.06C1548.79 1044.5 1540.24 1035.95 1530.61 1033.81C1516.71 1031.67 1511.36 1037.01 1511.36 1053.06C1511.36 1069.1 1516.71 1074.45 1530.61 1072.31ZM1574.46 1125.79C1639.71 1130.07 1680.35 1070.17 1630.08 1042.36C1593.72 1023.11 1577.67 1032.74 1560.56 1078.73C1557.35 1089.43 1550.93 1095.84 1546.65 1092.63C1543.45 1088.36 1531.68 1090.49 1520.98 1096.91C1507.08 1103.33 1494.24 1103.33 1479.27 1093.7C1435.42 1065.89 1389.42 1136.49 1432.21 1167.51C1460.02 1187.83 1474.99 1184.62 1504.94 1152.53C1526.33 1129 1540.24 1124.72 1574.46 1125.79ZM2466.51 1121.51C2508.22 1147.18 2551.01 1074.45 2510.36 1045.57C2499.67 1038.08 2487.9 1031.67 2484.69 1031.67C2481.48 1031.67 2469.72 1038.08 2459.02 1045.57C2435.49 1062.69 2439.77 1104.4 2466.51 1121.51ZM1383.01 1117.23C1396.91 1094.77 1395.84 1070.17 1380.87 1055.2C1373.38 1047.71 1360.54 1042.36 1350.92 1042.36C1330.6 1042.36 1308.13 1062.69 1308.13 1081.94C1308.13 1091.56 1287.81 1095.84 1235.4 1095.84H1163.74L1062.13 1197.45C986.185 1273.4 956.237 1296.93 941.262 1292.65C914.522 1284.09 880.295 1317.25 880.295 1352.55C880.295 1368.59 869.599 1391.05 853.555 1406.03C832.163 1425.28 826.815 1441.32 826.815 1480.9C826.815 1523.68 832.163 1535.45 869.599 1571.81L912.383 1613.53V1754.71V1895.9L948.75 1923.71C984.046 1950.45 991.533 1951.52 1117.75 1951.52C1240.75 1951.52 1251.45 1949.38 1281.39 1925.85C1310.27 1902.32 1312.41 1898.04 1296.37 1882C1276.05 1861.67 1248.24 1870.23 1240.75 1899.11C1235.4 1917.29 1224.71 1919.43 1112.4 1919.43C991.533 1919.43 988.325 1918.36 966.933 1891.62C946.61 1865.95 944.471 1848.84 944.471 1727.97V1592.14L901.687 1550.42C835.372 1485.18 848.207 1435.97 945.541 1386.77C965.863 1376.08 984.046 1356.82 988.325 1341.85C992.603 1326.88 1036.46 1272.33 1086.73 1220.99L1178.71 1125.79L1276.05 1130.07C1353.06 1132.21 1375.52 1130.07 1383.01 1117.23ZM1089.94 1095.84C1104.91 1110.82 1130.58 1089.43 1123.09 1070.17C1118.82 1060.55 1111.33 1053.06 1104.91 1053.06C1088.87 1053.06 1078.17 1084.08 1089.94 1095.84ZM2730.7 1095.84C2744.6 1095.84 2752.09 1088.36 2752.09 1074.45C2752.09 1060.55 2744.6 1053.06 2730.7 1053.06C2716.79 1053.06 2709.31 1060.55 2709.31 1074.45C2709.31 1088.36 2716.79 1095.84 2730.7 1095.84ZM2834.45 1094.77C2848.35 1089.43 2856.91 1080.87 2853.7 1074.45C2837.66 1047.71 2752.09 1083.01 2752.09 1116.17C2752.09 1131.14 2791.67 1131.14 2800.22 1116.17C2804.5 1110.82 2819.48 1101.19 2834.45 1094.77ZM1062.13 1161.09C1077.1 1132.21 1076.03 1121.51 1055.71 1102.26C1016.13 1061.62 962.654 1103.33 986.185 1155.74C1000.09 1187.83 1046.08 1191.04 1062.13 1161.09ZM2361.69 1181.41C2402.33 1214.57 2455.81 1146.11 2418.38 1108.68C2410.89 1101.19 2398.05 1095.84 2388.43 1095.84C2348.85 1095.84 2329.6 1154.67 2361.69 1181.41ZM2917.88 1204.94C2949.97 1177.13 2952.1 1146.11 2923.23 1117.23C2896.49 1090.49 2879.37 1090.49 2844.08 1118.3C2810.92 1143.97 2808.78 1174.99 2837.66 1199.59C2857.98 1217.78 2859.05 1231.68 2859.05 1470.2V1722.63L2911.46 1773.97C2957.45 1819.96 2970.29 1826.38 3010.93 1827.45L3056.93 1828.52L3060.13 1873.44C3062.27 1909.81 3060.13 1919.43 3047.3 1919.43C3025.91 1919.43 3024.84 1939.75 3046.23 1947.24C3069.76 1956.87 3094.36 1932.27 3094.36 1901.25C3094.36 1886.27 3109.34 1857.4 3128.59 1834.93C3158.54 1801.78 3169.23 1796.43 3210.95 1796.43C3253.73 1796.43 3261.22 1792.15 3274.05 1767.55C3285.82 1742.95 3292.24 1739.74 3318.98 1745.09C3342.51 1749.37 3352.13 1746.16 3357.48 1733.32C3372.46 1694.82 3313.63 1667.01 3286.89 1700.16C3279.4 1708.72 3260.15 1715.14 3239.83 1713C3214.16 1711.93 3204.53 1716.21 3195.97 1734.39C3190.63 1748.3 3176.72 1758.99 3164.95 1758.99C3146.77 1758.99 3146.77 1757.92 3162.82 1732.25C3178.86 1707.65 3178.86 1705.51 3155.33 1693.75C3142.49 1687.33 3109.34 1658.45 3082.6 1629.57C3055.86 1600.69 3025.91 1577.16 3016.28 1577.16C2970.29 1577.16 2947.83 1652.03 2987.4 1673.42C3001.31 1680.91 3008.79 1695.89 3008.79 1716.21C3008.79 1738.67 3014.14 1748.3 3025.91 1748.3C3035.53 1748.3 3049.44 1755.78 3056.93 1766.48C3072.97 1788.94 3108.27 1777.18 3102.92 1751.51C3099.71 1738.67 3090.08 1733.32 3075.11 1734.39C3054.79 1736.53 3051.58 1732.25 3051.58 1700.16C3051.58 1679.84 3055.86 1662.73 3061.2 1662.73C3077.25 1662.73 3137.15 1737.6 3137.15 1757.92C3137.15 1786.8 3097.57 1819.96 3081.53 1803.92C3074.04 1796.43 3049.44 1791.08 3025.91 1791.08C2989.54 1791.08 2975.64 1783.59 2937.13 1746.16L2891.14 1701.23V1464.85V1228.47L2917.88 1204.94ZM2693.26 1223.12C2734.98 1240.24 2772.41 1198.52 2752.09 1158.95C2737.12 1132.21 2692.19 1132.21 2675.08 1160.02C2665.45 1173.92 2649.41 1181.41 2628.02 1181.41C2607.69 1181.41 2591.65 1187.83 2587.37 1197.45C2583.09 1210.29 2591.65 1213.5 2626.95 1214.57C2651.55 1214.57 2681.5 1218.85 2693.26 1223.12ZM1671.8 1212.43C1680.35 1198.52 1679.28 1185.69 1671.8 1170.71C1652.54 1134.35 1586.23 1149.32 1586.23 1188.9C1586.23 1210.29 1433.28 1208.15 1415.09 1186.76C1405.47 1174.99 1379.8 1170.71 1325.25 1170.71C1256.79 1170.71 1245.03 1173.92 1222.57 1197.45C1208.66 1212.43 1187.27 1224.19 1175.5 1224.19C1160.53 1224.19 1107.05 1270.19 1026.83 1350.41C915.592 1461.64 900.618 1481.97 903.826 1508.71C908.105 1547.21 938.054 1550.42 942.332 1512.99C947.68 1474.48 1150.9 1271.26 1192.62 1262.7C1210.8 1259.49 1234.33 1244.52 1246.1 1229.54C1264.28 1206.01 1274.98 1202.8 1329.53 1202.8C1371.24 1202.8 1395.84 1208.15 1404.4 1218.85C1415.09 1231.68 1442.9 1234.89 1539.17 1233.82C1648.27 1232.75 1662.17 1230.61 1671.8 1212.43ZM941.262 1266.98C972.281 1266.98 992.603 1231.68 977.629 1203.87C961.585 1174.99 940.193 1169.64 913.453 1187.83C873.878 1215.64 890.991 1266.98 941.262 1266.98ZM2383.08 1234.89C2391.64 1248.79 2420.52 1235.96 2420.52 1217.78C2420.52 1200.66 2392.71 1197.45 2383.08 1213.5C2379.87 1218.85 2378.8 1228.47 2383.08 1234.89ZM2789.53 1311.9C2822.68 1296.93 2825.89 1252 2795.94 1234.89L2794.4 1234.09C2782.92 1228.09 2777.31 1225.16 2771.83 1225.41C2766.59 1225.65 2761.48 1228.82 2751.47 1235.02L2749.95 1235.96C2726.42 1248.79 2725.35 1291.58 2746.74 1309.76C2759.58 1320.46 2769.2 1320.46 2789.53 1311.9ZM3098.64 1306.55C3103.99 1279.81 3099.71 1265.91 3083.67 1247.73C3070.83 1233.82 3048.37 1224.19 3030.19 1224.19C2989.54 1224.19 2989.54 1230.61 3030.19 1250.93C3056.93 1264.84 3062.27 1273.4 3062.27 1308.69C3062.27 1336.5 3056.93 1352.55 3045.16 1356.82C3023.77 1365.38 3029.12 1415.65 3054.79 1431.7C3075.11 1444.53 3100.78 1433.84 3120.03 1402.82C3128.59 1389.98 3125.38 1380.36 3111.48 1364.31C3096.5 1348.27 3093.29 1333.29 3098.64 1306.55ZM847.138 1331.15C871.739 1318.32 877.087 1278.74 856.764 1258.42C823.607 1225.26 762.64 1270.19 785.101 1311.9C800.076 1339.71 820.398 1346.13 847.138 1331.15ZM2998.1 1325.81C3013.07 1316.18 3012 1274.47 2995.96 1258.42C2978.84 1241.31 2949.97 1242.38 2933.92 1261.63C2920.02 1278.74 2927.5 1331.15 2944.62 1331.15C2951.04 1331.15 2955.31 1356.82 2955.31 1387.84V1444.53L3048.37 1537.59C3133.94 1624.22 3144.63 1630.64 3184.21 1630.64C3208.81 1630.64 3237.69 1633.85 3250.52 1637.06C3280.47 1645.62 3310.42 1614.6 3306.14 1578.23C3304 1558.98 3295.45 1549.35 3279.4 1547.21C3258.01 1544 3254.8 1537.59 3254.8 1492.66C3254.8 1428.49 3233.41 1406.03 3170.3 1406.03C3132.87 1406.03 3125.38 1409.23 3128.59 1424.21C3130.73 1439.18 3140.35 1442.39 3166.02 1440.25C3208.81 1435.97 3222.71 1459.51 3222.71 1535.45C3222.71 1582.51 3224.85 1588.93 3238.76 1577.16C3254.8 1564.33 3276.19 1570.74 3276.19 1588.93C3276.19 1594.27 3249.45 1598.55 3216.3 1598.55H3156.4L3071.9 1516.19C2989.54 1437.04 2987.4 1432.77 2987.4 1383.56C2987.4 1355.75 2992.75 1329.01 2998.1 1325.81ZM1204.38 1410.3C1246.1 1435.97 1288.88 1363.24 1248.24 1334.36C1223.64 1316.18 1206.52 1317.25 1190.48 1335.43C1173.36 1356.82 1180.85 1395.33 1204.38 1410.3ZM1522.05 1379.29C1712.44 1379.29 1730.63 1377.15 1733.83 1360.03C1737.04 1342.92 1721 1341.85 1522.05 1341.85C1322.04 1341.85 1307.06 1342.92 1310.27 1360.03C1313.48 1377.15 1332.73 1379.29 1522.05 1379.29ZM1126.3 1395.33C1140.21 1395.33 1147.69 1387.84 1147.69 1373.94C1147.69 1360.03 1140.21 1352.55 1126.3 1352.55C1112.4 1352.55 1104.91 1360.03 1104.91 1373.94C1104.91 1387.84 1112.4 1395.33 1126.3 1395.33ZM731.621 1448.81C748.735 1448.81 806.493 1384.63 800.076 1372.87C791.519 1358.96 751.944 1361.1 751.944 1375.01C751.944 1381.43 741.248 1395.33 728.413 1404.96C707.021 1423.14 708.09 1448.81 731.621 1448.81ZM1707.09 1446.67C1719.93 1444.53 1730.63 1435.97 1730.63 1427.42C1730.63 1410.3 1702.82 1400.68 1689.98 1412.44C1672.87 1429.56 1683.56 1449.88 1707.09 1446.67ZM1197.97 1481.97C1214.01 1498.01 1233.26 1485.18 1233.26 1459.51C1233.26 1442.39 1222.57 1439.18 1161.6 1435.97L1088.87 1432.77L1033.25 1485.18L976.559 1537.59V1672.36V1808.19L1011.86 1841.35C1042.87 1871.3 1053.57 1874.51 1125.23 1878.79C1190.48 1880.93 1205.45 1878.79 1216.15 1862.74C1240.75 1824.24 1177.64 1781.45 1147.69 1817.82C1128.44 1840.28 1058.92 1839.21 1037.53 1814.61C1022.55 1798.57 1019.34 1770.76 1019.34 1672.36V1549.35L1059.99 1509.78C1093.15 1477.69 1108.12 1470.2 1143.42 1470.2C1166.95 1470.2 1191.55 1475.55 1197.97 1481.97ZM3081.53 1483.04C3096.5 1498.01 3129.66 1485.18 3124.31 1466.99C3117.89 1449.88 3087.94 1444.53 3078.32 1459.51C3074.04 1466.99 3075.11 1476.62 3081.53 1483.04ZM809.702 1576.09C776.544 1542.93 744.456 1504.43 736.969 1490.52C707.021 1429.56 626.801 1470.2 654.61 1531.17C664.237 1551.49 673.863 1556.84 698.464 1553.63C724.134 1551.49 740.178 1560.05 784.032 1603.9L837.511 1656.31V1807.12V1957.94L872.808 1992.16L908.105 2026.39H1069.61C1200.1 2026.39 1233.26 2029.6 1243.96 2042.44C1278.19 2083.08 1343.43 2041.37 1318.83 1994.3C1307.06 1971.84 1261.07 1964.36 1249.31 1983.61C1245.03 1990.03 1178.71 1994.3 1085.66 1994.3C930.566 1994.3 929.497 1994.3 899.548 1965.42L869.599 1936.55V1786.8V1637.06L809.702 1576.09ZM3168.16 1505.5C3184.21 1521.54 3206.67 1499.08 3198.11 1476.62C3193.83 1466.99 3186.35 1459.51 3179.93 1459.51C3162.82 1459.51 3154.26 1491.59 3168.16 1505.5ZM762.64 1492.66C762.64 1519.4 797.936 1516.19 803.284 1488.38C805.424 1475.55 800.076 1470.2 785.101 1470.2C769.057 1470.2 762.64 1476.62 762.64 1492.66ZM2957.45 1575.02C2988.47 1570.74 3006.65 1539.73 2991.68 1515.12C2975.64 1490.52 2940.34 1486.25 2923.23 1507.64C2902.9 1532.24 2926.43 1579.3 2957.45 1575.02ZM3151.05 1564.33C3169.23 1579.3 3195.97 1562.19 3187.42 1540.79C3178.86 1519.4 3164.95 1519.4 3148.91 1538.66C3140.35 1549.35 3140.35 1555.77 3151.05 1564.33ZM618.244 1662.73C646.054 1662.73 671.724 1628.5 662.098 1603.9C655.68 1584.65 622.522 1567.53 604.339 1573.95C559.416 1590 570.112 1662.73 618.244 1662.73ZM1323.11 1612.46C1289.95 1612.46 1257.86 1606.04 1251.45 1599.62C1224.71 1572.88 1169.09 1594.27 1169.09 1631.71C1169.09 1664.87 1197.97 1678.77 1237.54 1664.87C1287.81 1646.68 1358.41 1648.82 1365.89 1668.08C1373.38 1689.47 1403.33 1688.4 1411.89 1667.01C1423.65 1637.06 1386.21 1614.6 1323.11 1612.46ZM727.343 1692.68C760.5 1676.63 771.196 1647.75 751.944 1625.29C731.621 1600.69 688.837 1604.97 678.141 1632.78C673.863 1646.68 668.515 1711.93 667.445 1779.31C665.306 1894.83 663.167 1902.32 638.566 1921.57C596.852 1955.8 605.409 1982.54 687.768 2063.83C729.482 2104.47 762.64 2146.19 762.64 2155.81C762.64 2179.34 800.076 2210.36 822.537 2206.08C849.277 2200.74 852.486 2179.34 827.885 2170.79C815.05 2167.58 805.424 2155.81 805.424 2145.12C805.424 2134.42 778.684 2100.19 745.526 2069.18C688.837 2015.7 687.768 2012.49 704.881 1993.23C720.925 1975.05 721.995 1966.49 711.299 1936.55C703.812 1917.29 698.464 1858.47 698.464 1803.92C698.464 1708.72 698.464 1706.58 727.343 1692.68ZM2153.12 1650.96C2164.88 1671.29 2198.04 1657.38 2193.76 1633.85C2191.62 1624.22 2185.2 1614.6 2178.79 1612.46C2160.6 1606.04 2142.42 1634.92 2153.12 1650.96ZM2932.85 1719.42C2948.9 1735.46 2971.36 1713 2962.8 1690.54C2958.52 1680.91 2951.04 1673.42 2944.62 1673.42C2927.5 1673.42 2918.95 1705.51 2932.85 1719.42ZM578.669 1718.35C593.643 1733.32 626.801 1720.49 621.453 1702.3C615.035 1685.19 585.087 1679.84 575.46 1694.82C571.182 1702.3 572.251 1711.93 578.669 1718.35ZM2119.96 1746.16C2129.58 1744.02 2137.07 1733.32 2137.07 1721.56C2137.07 1699.1 2106.05 1686.26 2095.36 1704.44C2084.66 1721.56 2100.71 1749.37 2119.96 1746.16ZM749.804 1750.44C765.848 1766.48 795.797 1741.88 787.24 1720.49C784.032 1711.93 774.405 1705.51 766.918 1705.51C746.596 1705.51 734.83 1735.46 749.804 1750.44ZM1077.1 1785.73C1115.61 1785.73 1137 1756.85 1119.89 1729.04C1104.91 1705.51 1053.57 1699.1 1045.01 1720.49C1041.8 1729.04 1040.73 1747.23 1042.87 1761.13C1045.01 1780.38 1052.5 1785.73 1077.1 1785.73ZM573.321 1838.14C611.826 1862.74 653.541 1800.71 623.592 1763.27C616.105 1755.78 602.2 1748.3 591.504 1748.3C548.72 1748.3 534.815 1814.61 573.321 1838.14ZM807.563 1846.7C817.189 1837.07 817.189 1827.45 807.563 1807.12C790.449 1769.69 745.526 1770.76 728.413 1808.19C716.647 1832.79 717.717 1839.21 739.108 1855.26C758.361 1871.3 762.64 1886.27 762.64 1931.2C762.64 1970.77 757.292 1990.03 744.456 1999.65C728.413 2011.42 732.691 2037.09 751.944 2037.09C779.753 2037.09 794.728 2000.72 794.728 1931.2C794.728 1890.55 800.076 1854.19 807.563 1846.7ZM3399.2 1872.37C3428.08 1853.12 3432.35 1833.86 3415.24 1800.71C3402.41 1777.18 3352.13 1772.9 3331.81 1793.22C3310.42 1814.61 3316.84 1853.12 3345.72 1872.37C3370.32 1888.41 3374.6 1888.41 3399.2 1872.37ZM625.731 1900.18C632.149 1893.76 634.288 1880.93 631.079 1872.37C622.522 1850.98 595.783 1849.91 588.295 1870.23C579.739 1891.62 609.687 1916.22 625.731 1900.18ZM2846.21 1889.48C2861.19 1904.46 2894.35 1891.62 2889 1873.44C2882.58 1856.33 2852.63 1850.98 2843.01 1865.95C2838.73 1873.44 2839.8 1883.07 2846.21 1889.48ZM3015.21 1898.04C3030.19 1913.01 3055.86 1891.62 3048.37 1872.37C3044.09 1862.74 3036.6 1855.26 3030.19 1855.26C3014.14 1855.26 3003.45 1886.27 3015.21 1898.04ZM3284.75 1906.6C3294.38 1904.46 3302.93 1895.9 3302.93 1887.34C3302.93 1878.79 3294.38 1870.23 3284.75 1868.09C3270.84 1865.95 3265.5 1871.3 3265.5 1887.34C3265.5 1903.39 3270.84 1908.74 3284.75 1906.6ZM3381.01 1932.27C3395.99 1947.24 3429.15 1934.41 3423.8 1916.22C3417.38 1899.11 3387.43 1893.76 3377.8 1908.74C3373.53 1916.22 3374.6 1925.85 3381.01 1932.27ZM3313.63 1972.91C3333.95 1990.03 3357.48 1971.84 3347.86 1947.24C3339.3 1925.85 3325.39 1925.85 3309.35 1945.1C3299.72 1955.8 3300.79 1962.22 3313.63 1972.91ZM3280.47 2033.88C3300.79 2026.39 3302.93 1993.23 3284.75 1975.05C3270.84 1961.15 3231.27 1957.94 3219.5 1969.7C3215.23 1972.91 3212.02 1994.3 3212.02 2015.7C3212.02 2045.64 3203.46 2061.69 3174.58 2090.57C3139.28 2124.79 3137.15 2130.14 3137.15 2201.81C3137.15 2275.61 3136.08 2277.75 3093.29 2321.6C3047.3 2368.66 3036.6 2407.17 3062.27 2438.19C3080.46 2460.65 3129.66 2458.51 3151.05 2434.98C3173.51 2410.38 3173.51 2391.12 3152.12 2360.11C3136.08 2337.64 3136.08 2333.37 3152.12 2316.25C3164.95 2302.35 3169.23 2275.61 3169.23 2217.85C3169.23 2139.8 3170.27 2138.71 3215.43 2091.53L3217.36 2089.5C3243.04 2061.69 3271.91 2037.09 3280.47 2033.88ZM3431.28 2090.57C3469.79 2053.13 3480.49 2010.35 3455.89 1985.75C3428.08 1957.94 3398.13 1973.98 3300.79 2071.31L3202.39 2170.79L3199.18 2331.23L3195.97 2491.67L2983.12 2494.88L2769.2 2497.01L2733.91 2462.79C2711.45 2441.4 2698.61 2418.93 2698.61 2399.68C2698.61 2384.71 2691.12 2365.45 2682.57 2357.97C2663.31 2341.92 2626.95 2353.69 2618.39 2378.29C2611.97 2400.75 2621.6 2432.84 2635.5 2432.84C2640.85 2432.84 2671.87 2457.44 2703.96 2486.32L2763.86 2539.8L2974.57 2538.73C2989.15 2538.67 3002.91 2538.65 3015.89 2538.63C3135.07 2538.45 3189.2 2538.37 3213.67 2511.39C3234.03 2488.94 3233.84 2447.85 3233.5 2372.58C3233.46 2362.3 3233.41 2351.38 3233.41 2339.78V2186.83L3311.49 2108.75C3353.2 2065.97 3394.92 2022.11 3403.48 2011.42C3413.1 1998.58 3421.66 1996.44 3429.15 2003.93C3435.56 2010.35 3424.87 2032.81 3394.92 2071.31C3357.48 2118.38 3351.06 2133.35 3355.34 2160.09C3360.69 2188.97 3355.34 2199.67 3313.63 2240.31L3265.5 2287.37V2428.56C3265.5 2561.19 3266.57 2570.82 3286.89 2577.23C3298.65 2580.44 3317.91 2580.44 3329.67 2577.23C3348.93 2570.82 3351.06 2561.19 3351.06 2454.23C3351.06 2390.05 3354.27 2331.23 3357.48 2321.6C3366.04 2299.14 3419.52 2299.14 3453.75 2322.67C3479.42 2338.71 3481.56 2338.71 3502.95 2317.32C3535.04 2285.23 3522.2 2240.31 3480.49 2240.31C3463.37 2240.31 3444.12 2247.8 3436.63 2256.36C3429.15 2264.91 3407.75 2272.4 3388.5 2272.4C3328.6 2272.4 3318.98 2295.93 3318.98 2430.7C3318.98 2503.43 3314.7 2550.49 3308.28 2550.49C3301.86 2550.49 3297.58 2501.29 3297.58 2423.21V2294.86L3345.72 2255.29C3388.5 2219.99 3393.85 2211.43 3393.85 2171.86C3393.85 2134.42 3400.27 2120.52 3431.28 2090.57ZM917.731 2071.31L883.504 2038.16C864.251 2019.97 846.068 2005 842.859 2005C832.163 2005 823.607 2038.16 833.233 2045.64C838.581 2049.92 861.043 2069.18 882.435 2089.5C917.731 2121.59 925.218 2124.79 946.61 2114.1C960.515 2106.61 1025.76 2100.19 1092.08 2099.12C1266.42 2094.85 1246.1 2074.52 1065.34 2072.38L917.731 2071.31ZM3148.91 2083.08C3172.44 2057.41 3190.63 2030.67 3187.42 2023.18C3185.28 2015.7 3173.51 2009.28 3160.68 2007.14C3143.56 2003.93 3137.15 2009.28 3137.15 2023.18C3137.15 2034.95 3123.24 2057.41 3105.06 2074.52C3075.11 2103.4 3072.97 2110.89 3072.97 2181.48C3072.97 2226.41 3067.62 2262.77 3060.13 2270.26C3051.58 2278.82 3009.86 2283.1 2945.69 2283.1L2843.01 2284.16L2798.08 2324.81C2772.41 2347.27 2752.09 2371.87 2752.09 2378.29C2752.09 2402.89 2791.67 2388.99 2826.96 2352.62L2864.4 2314.11L2958.52 2316.25C3043.02 2317.32 3054.79 2315.18 3078.32 2293.79C3101.85 2272.4 3105.06 2259.56 3105.06 2199.67C3105.06 2133.35 3107.2 2128 3148.91 2083.08ZM835.372 2135.49C850.347 2150.47 883.504 2137.63 878.156 2119.45C871.739 2102.33 841.79 2096.99 832.163 2111.96C827.885 2119.45 828.955 2129.07 835.372 2135.49ZM3501.88 2197.53C3517.92 2187.9 3522.2 2177.21 3520.06 2151.53C3517.92 2123.73 3511.5 2116.24 3490.11 2114.1C3458.02 2110.89 3436.63 2129.07 3436.63 2162.23C3436.63 2194.32 3471.93 2213.57 3501.88 2197.53ZM1086.73 2170.79C1138.07 2170.79 1153.04 2167.58 1153.04 2154.74C1153.04 2141.91 1135.93 2137.63 1076.03 2135.49C1031.11 2133.35 996.881 2136.56 992.603 2144.05C989.394 2149.4 972.281 2154.74 956.237 2154.74C914.522 2154.74 895.27 2180.41 908.105 2216.78C916.662 2240.31 925.218 2245.66 955.167 2245.66C987.255 2245.66 993.673 2241.38 995.812 2218.92C1001.16 2178.27 1013.99 2171.86 1086.73 2170.79ZM1226.84 2233.89C1250.38 2225.34 1260 2179.34 1243.96 2160.09C1216.15 2126.93 1169.09 2148.33 1169.09 2194.32C1169.09 2221.06 1201.17 2243.52 1226.84 2233.89ZM1776.62 2215.71C1789.45 2201.81 1800.15 2184.69 1800.15 2178.27C1800.15 2159.02 1775.55 2162.23 1754.16 2183.62C1739.18 2198.6 1717.79 2202.88 1661.1 2202.88H1587.3L1532.75 2256.36L1479.27 2308.77V2390.05V2471.34L1553.07 2544.08L1626.87 2616.81L1741.32 2615.74C1812.98 2614.67 1861.12 2617.88 1869.67 2625.37C1890 2642.48 1929.57 2634.99 1943.47 2612.53C1968.08 2572.96 1904.97 2530.17 1875.02 2566.54C1864.32 2579.37 1837.58 2582.58 1753.09 2582.58H1643.99L1577.67 2515.2L1577.62 2515.14C1512.43 2448.88 1511.36 2447.8 1511.36 2387.92C1511.36 2331.23 1514.57 2323.74 1554.14 2283.1C1595.86 2240.31 1596.93 2240.31 1675.01 2240.31C1743.46 2240.31 1756.3 2237.1 1776.62 2215.71ZM3289.03 2206.08C3305.07 2222.13 3329.67 2209.29 3329.67 2185.76C3329.67 2172.93 3322.19 2165.44 3309.35 2165.44C3285.82 2165.44 3272.98 2190.04 3289.03 2206.08ZM1149.83 2257.42C1132.72 2248.87 1113.47 2233.89 1105.98 2225.34C1087.8 2202.88 1030.04 2202.88 1030.04 2224.27C1030.04 2233.89 1039.67 2240.31 1052.5 2240.31C1065.34 2240.31 1084.59 2252.08 1096.35 2267.05C1116.68 2293.79 1161.6 2303.42 1174.43 2283.1C1177.64 2277.75 1166.95 2265.98 1149.83 2257.42ZM1212.94 2305.56C1238.61 2321.6 1249.31 2316.25 1263.21 2280.96C1277.12 2242.45 1274.98 2232.82 1254.65 2256.36C1247.17 2264.91 1235.4 2272.4 1226.84 2272.4C1205.45 2272.4 1196.9 2294.86 1212.94 2305.56ZM2344.57 2336.57C2363.83 2336.57 2367.04 2301.28 2350.99 2276.68C2333.88 2248.87 2309.28 2244.59 2279.33 2262.77C2253.66 2277.75 2254.73 2322.67 2281.47 2338.71C2322.11 2364.38 2308.21 2400.75 2231.2 2472.41C2159.53 2538.73 2157.39 2539.8 2098.57 2539.8C2051.5 2539.8 2034.39 2535.52 2019.42 2518.41C2001.23 2498.08 1988.4 2497.01 1883.58 2499.15C1732.76 2503.43 1725.28 2522.68 1873.95 2526.96C1968.08 2529.1 1987.33 2533.38 2002.3 2550.49C2015.14 2566.54 2037.6 2572.96 2094.29 2577.23L2169.16 2583.65L2252.59 2503.43C2328.53 2429.63 2334.95 2420 2334.95 2380.43C2334.95 2355.83 2339.23 2336.57 2344.57 2336.57ZM2239.75 2390.05C2260.08 2390.05 2262.21 2359.04 2241.89 2338.71C2225.85 2321.6 2202.32 2317.32 2096.43 2311.97L1971.28 2306.63L1964.87 2332.3C1952.03 2382.57 2010.86 2412.52 2037.6 2368.66C2049.36 2350.48 2063.27 2347.27 2128.52 2347.27C2194.83 2347.27 2207.67 2350.48 2217.29 2368.66C2223.71 2380.43 2233.34 2390.05 2239.75 2390.05ZM1741.32 2379.36C1760.57 2379.36 1769.13 2352.62 1754.16 2337.64C1738.11 2321.6 1725.28 2322.67 1718.86 2341.92C1711.37 2361.18 1722.07 2379.36 1741.32 2379.36ZM2906.11 2448.88C2967.08 2494.88 3041.95 2425.35 2995.96 2366.52C2966.01 2329.09 2925.36 2334.44 2879.37 2380.43C2867.61 2392.19 2847.28 2400.75 2834.45 2400.75C2820.54 2400.75 2801.29 2409.31 2790.6 2421.07C2774.55 2439.26 2774.55 2441.4 2790.6 2455.3C2805.57 2467.07 2809.85 2467.07 2821.61 2451.02C2837.66 2428.56 2878.3 2427.49 2906.11 2448.88ZM3468.72 2384.71C3468.72 2377.22 3461.23 2362.25 3451.61 2353.69C3420.59 2322.67 3372.46 2339.78 3372.46 2380.43C3372.46 2402.89 3400.27 2432.84 3420.59 2432.84C3439.84 2432.84 3468.72 2403.96 3468.72 2384.71ZM1918.87 2432.84C1935.99 2412.52 1947.75 2390.05 1945.61 2384.71C1939.2 2361.18 1911.39 2369.73 1883.58 2405.03C1857.91 2437.12 1855.77 2442.47 1870.74 2455.3C1885.72 2467.07 1892.13 2463.86 1918.87 2432.84ZM2141.35 2467.07C2186.27 2494.88 2232.27 2424.28 2189.48 2393.26C2163.81 2375.08 2157.39 2375.08 2132.79 2399.68C2116.75 2415.73 2102.84 2420 2076.1 2414.66C2013 2405.03 1990.54 2467.07 2051.5 2482.04C2069.69 2486.32 2085.73 2483.11 2098.57 2471.34C2115.68 2455.3 2122.1 2455.3 2141.35 2467.07ZM3440.91 2583.65C3494.39 2550.49 3502.95 2520.55 3468.72 2486.32C3456.95 2474.55 3440.91 2464.93 3433.42 2464.93C3405.61 2464.93 3379.94 2492.74 3382.08 2521.62C3384.22 2566.54 3384.22 2575.1 3376.74 2614.67C3372.46 2634.99 3363.9 2655.31 3357.48 2659.59C3351.06 2663.87 3202.39 2668.15 3026.98 2668.15H2707.17L2634.43 2597.56L2561.7 2528.03L2505.01 2531.24C2459.02 2533.38 2446.19 2538.73 2444.05 2554.77C2439.77 2572.96 2445.12 2574.03 2491.11 2568.68L2543.52 2563.33L2615.18 2631.78L2685.78 2700.24H3026.98C3344.65 2700.24 3370.32 2699.17 3386.36 2680.99C3397.06 2670.29 3404.54 2648.9 3404.54 2633.92C3404.54 2613.6 3414.17 2599.7 3440.91 2583.65ZM3177.79 2623.23C3187.42 2621.09 3195.97 2610.39 3195.97 2599.7C3195.97 2578.3 3178.86 2566.54 3166.02 2578.3C3149.98 2594.35 3158.54 2626.44 3177.79 2623.23ZM2402.33 2672.43C2438.7 2695.96 2480.41 2643.55 2452.6 2609.32C2445.12 2600.77 2431.21 2593.28 2420.52 2593.28C2377.73 2593.28 2364.9 2648.9 2402.33 2672.43ZM2549.94 2668.15C2572.4 2655.31 2576.68 2625.37 2557.42 2606.11C2538.17 2586.86 2497.53 2590.07 2490.04 2613.6C2477.2 2656.38 2511.43 2688.47 2549.94 2668.15ZM3243.04 2646.76C3263.36 2646.76 3280.47 2622.16 3268.71 2610.39C3252.66 2595.42 3222.71 2605.04 3222.71 2625.37C3222.71 2639.27 3230.2 2646.76 3243.04 2646.76ZM3322.19 2644.62C3335.02 2642.48 3345.72 2633.92 3345.72 2625.37C3345.72 2608.25 3317.91 2598.63 3305.07 2610.39C3287.96 2627.51 3298.65 2647.83 3322.19 2644.62ZM2129.58 2655.31C2139.21 2653.18 2147.77 2644.62 2147.77 2636.06C2147.77 2627.51 2139.21 2618.95 2129.58 2616.81C2115.68 2614.67 2110.33 2620.02 2110.33 2636.06C2110.33 2652.11 2115.68 2657.45 2129.58 2655.31ZM2332.81 2687.4C2342.43 2685.26 2350.99 2674.57 2350.99 2663.87C2350.99 2642.48 2333.88 2630.71 2321.04 2642.48C2305 2658.52 2313.56 2690.61 2332.81 2687.4ZM2599.14 2710.93C2628.02 2710.93 2639.78 2693.82 2617.32 2685.26C2591.65 2675.64 2586.3 2676.71 2565.98 2699.17C2548.87 2718.42 2552.08 2722.7 2636.57 2800.78C2694.27 2853.61 2714.47 2872.1 2737.98 2878.58C2750.65 2882.07 2764.28 2882.07 2785.25 2882.07C2872.95 2882.07 2976.71 2894.9 2976.71 2904.53C2976.71 2909.88 2921.09 2914.16 2852.63 2914.16H2728.56L2606.63 2801.85C2494.32 2698.1 2482.55 2690.61 2457.95 2700.24C2442.98 2705.59 2411.96 2709.86 2390.57 2708.79C2306.07 2705.59 2305 2706.66 2303.93 2852.12C2302.86 2937.69 2298.58 2984.75 2291.09 2990.1C2275.05 2999.73 2287.89 3035.02 2306.07 3029.67C2314.63 3026.47 2319.97 2990.1 2322.11 2910.95C2326.39 2736.6 2345.64 2769.76 2345.64 2951.59C2345.64 3047.86 2341.37 3106.68 2334.95 3106.68C2329.6 3106.68 2324.25 3116.31 2324.25 3128.08C2324.25 3141.98 2331.74 3149.47 2345.64 3149.47C2365.97 3149.47 2367.04 3141.98 2367.04 2962.29C2367.04 2844.63 2371.31 2775.11 2377.73 2775.11C2384.15 2775.11 2388.43 2851.05 2388.43 2981.54V3187.97L2450.46 3248.94L2512.5 3310.98L2640.85 3307.77C2745.67 3305.63 2768.13 3301.35 2768.13 3288.52C2768.13 3276.75 2753.16 3271.4 2715.72 3269.26C2668.66 3266.05 2655.83 3259.64 2598.07 3207.23C2562.77 3175.14 2528.54 3150.54 2523.2 3152.68C2502.87 3159.1 2505.01 3187.97 2525.34 3189.04C2542.45 3190.11 2613.04 3248.94 2613.04 3262.85C2613.04 3264.99 2589.51 3267.12 2561.7 3267.12C2515.71 3267.12 2506.08 3262.85 2466.51 3221.13L2422.65 3176.21L2415.17 2982.61C2409.82 2848.91 2410.89 2782.6 2418.38 2768.69C2428 2753.72 2430.14 2799.71 2431.21 2953.73V3160.16L2469.72 3202.95C2509.29 3246.8 2559.56 3261.78 2559.56 3229.69C2559.56 3220.06 2549.94 3213.64 2534.96 3213.64C2521.06 3213.64 2499.67 3202.95 2486.83 3189.04C2464.37 3165.51 2463.3 3154.82 2463.3 2966.57C2463.3 2775.11 2468.65 2743.02 2497.53 2743.02C2502.87 2743.02 2554.21 2786.88 2613.04 2839.29L2718.93 2935.55L2929.64 2933.41C3120.03 2930.2 3141.42 2928.06 3152.12 2910.95C3161.75 2894.9 3159.61 2887.42 3138.21 2870.3C3114.68 2851.05 3110.41 2851.05 3086.87 2866.03C3066.55 2879.93 3059.06 2879.93 3047.3 2869.23C3037.67 2859.61 2994.89 2855.33 2890.07 2856.4C2726.42 2857.47 2717.86 2855.33 2629.09 2765.48C2584.16 2718.42 2579.89 2710.93 2599.14 2710.93ZM1904.97 2800.78C1929.57 2784.74 1933.85 2749.44 1912.46 2728.05C1891.06 2706.66 1870.74 2706.66 1853.63 2725.91C1823.68 2763.34 1865.39 2825.38 1904.97 2800.78ZM2004.44 2756.93C2011.93 2749.44 2014.07 2736.6 2010.86 2728.05C2003.37 2708.79 1975.56 2705.59 1964.87 2722.7C1954.17 2740.88 1989.47 2771.9 2004.44 2756.93ZM1745.6 2800.78C1786.24 2837.15 1837.58 2792.22 1810.84 2743.02C1790.52 2705.59 1725.28 2721.63 1725.28 2764.41C1725.28 2774.04 1734.9 2791.15 1745.6 2800.78ZM2757.44 2817.89L2706.1 2769.76C2678.29 2743.02 2650.48 2721.63 2645.13 2721.63C2621.6 2721.63 2636.57 2744.09 2691.12 2790.08L2747.81 2838.22L2910.39 2840.36C2999.17 2840.36 3077.25 2838.22 3082.6 2833.94C3098.64 2824.31 3097.57 2775.11 3081.53 2774.04C3077.22 2774.04 3049.93 2773.69 3011.05 2773.18C2982.3 2772.81 2947.21 2772.36 2910.39 2771.9C2789.53 2769.76 2752.09 2772.97 2752.09 2782.6C2752.09 2793.29 2786.32 2796.5 2885.79 2796.5C2968.15 2796.5 3019.49 2800.78 3019.49 2807.2C3019.49 2813.62 2969.22 2817.89 2889 2817.89H2757.44ZM3107.2 2750.51C3111.48 2772.97 3142.49 2777.25 3142.49 2753.72C3142.49 2745.16 3133.94 2736.6 3123.24 2734.47C3108.27 2731.26 3103.99 2735.53 3107.2 2750.51ZM2516.78 2954.8V2864.96C2516.78 2782.6 2511.43 2763.34 2492.18 2782.6C2487.9 2785.81 2484.69 2826.45 2484.69 2872.44V2954.8L2562.77 3026.47L2639.78 3097.06H2810.92C2905.04 3097.06 2995.96 3098.13 3013.07 3099.2C3050.51 3101.34 3072.97 3073.53 3055.86 3045.72C3046.23 3029.67 3023.77 3027.53 2852.63 3030.74L2661.17 3032.88L2608.76 2980.47C2558.49 2928.06 2557.42 2925.92 2560.63 2870.3C2563.84 2823.24 2561.7 2812.55 2546.73 2809.34C2531.75 2806.13 2529.61 2814.68 2534.96 2873.51C2540.31 2936.62 2543.52 2944.11 2594.86 2996.52L2649.41 3053.21L2816.27 3055.34C2948.9 3056.41 2968.15 3058.55 2912.53 3063.9C2874.02 3068.18 2799.15 3072.46 2744.6 3073.53L2646.2 3074.6L2582.02 3014.7L2516.78 2954.8ZM2142.42 2903.46C2136 2903.46 2131.72 2897.04 2131.72 2889.56C2131.72 2867.1 2060.06 2802.92 2051.5 2817.89C2047.23 2824.31 2054.71 2841.42 2068.62 2856.4L2092.15 2882.07L2063.27 2908.81C2033.32 2936.62 2032.25 2963.36 2058.99 2996.52C2078.24 3021.12 2129.58 3012.56 2148.84 2983.68C2167.02 2955.87 2162.74 2903.46 2142.42 2903.46ZM1998.02 2903.46C2031.18 2903.46 2051.5 2869.23 2035.46 2839.29C2029.04 2826.45 2013 2817.89 1998.02 2817.89C1983.05 2817.89 1967.01 2826.45 1960.59 2839.29C1944.54 2869.23 1964.87 2903.46 1998.02 2903.46ZM3154.26 3002.93C3167.09 2954.8 3151.05 2951.59 2925.36 2954.8L2714.65 2958.01L2660.1 2909.88C2606.63 2862.82 2591.65 2858.54 2591.65 2890.63C2591.65 2900.25 2599.14 2904.53 2613.04 2900.25C2624.81 2897.04 2634.43 2900.25 2634.43 2906.67C2634.43 2914.16 2651.55 2933.41 2672.94 2950.52L2711.45 2981.54L2892.21 2976.19C2993.82 2972.99 3072.97 2974.05 3072.97 2979.4C3072.97 2984.75 2984.19 2989.03 2876.16 2989.03H2679.36L2650.48 2955.87C2629.09 2930.2 2619.46 2924.85 2609.83 2934.48C2601.28 2943.04 2606.63 2953.73 2634.43 2978.33L2671.87 3009.35L2867.61 3010.42C3023.77 3010.42 3067.62 3013.63 3087.94 3026.47C3118.96 3046.79 3145.7 3037.16 3154.26 3002.93ZM2647.27 3120.59C2645.13 3124.87 2614.11 3101.34 2577.75 3069.25C2511.43 3010.42 2492.18 3000.79 2479.34 3021.12C2469.72 3037.16 2483.62 3053.21 2507.15 3053.21C2517.85 3053.21 2563.84 3086.36 2608.76 3128.08L2688.98 3202.95H2758.51C2797.01 3202.95 2826.96 3207.23 2826.96 3213.64C2826.96 3220.06 2794.87 3224.34 2751.02 3224.34H2675.08L2598.07 3149.47C2516.78 3071.39 2495.39 3059.62 2495.39 3097.06C2495.39 3110.96 2500.73 3117.38 2512.5 3115.24C2521.06 3113.1 2559.56 3141.98 2597 3178.35L2665.45 3245.73H2746.74C2791.67 3245.73 2837.66 3251.08 2849.42 3257.5C2876.16 3271.4 2923.23 3244.66 2923.23 3214.71C2923.23 3183.7 2885.79 3156.96 2856.91 3166.58C2814.13 3180.49 2699.68 3174.07 2674.01 3155.89C2652.62 3140.91 2661.17 3139.84 2793.8 3139.84C2917.88 3138.77 2938.2 3140.91 2951.04 3156.96C2961.73 3171.93 2967.08 3173 2977.78 3163.37C2984.19 3156.96 2987.4 3144.12 2984.19 3134.49C2978.84 3121.66 2947.83 3118.45 2814.13 3115.24C2724.28 3113.1 2648.34 3115.24 2647.27 3120.59ZM2231.2 3121.66C2267.56 3145.19 2309.28 3092.78 2281.47 3058.55C2273.98 3050 2260.08 3042.51 2249.38 3042.51C2206.6 3042.51 2193.76 3098.13 2231.2 3121.66ZM2265.42 3213.64C2287.89 3213.64 2295.37 3193.32 2281.47 3176.21C2264.35 3155.89 2250.45 3155.89 2242.96 3176.21C2235.47 3195.46 2246.17 3213.64 2265.42 3213.64ZM2314.63 3204.02C2275.05 3246.8 2288.95 3260.71 2334.95 3224.34C2355.27 3209.37 2358.48 3200.81 2349.92 3192.25C2340.3 3182.63 2331.74 3185.84 2314.63 3204.02ZM2803.43 3331.3C2822.68 3330.23 2859.05 3307.77 2859.05 3294.93C2859.05 3283.17 2809.85 3288.52 2797.01 3301.35C2778.83 3319.53 2780.97 3331.3 2803.43 3331.3Z" fill="white"/>
</svg>
